# Aspose.3D Wavefront OBJ Exporter
# Copyright 2004-2023 Aspose Pty Ltd.
# File created: 06/11/2023 19:24:52

mtllib material.lib

#
# object Cube
#

v 0.26714421545658208 -2.53940563572662728 0.70950937271118168
v -0.28863065175598068 -2.53742503211865952 0.70950937271118168
v 0.26714421545658208 -2.53940563572662728 -0.70950937271118168
v -0.28863065175598068 -2.53742503211865952 -0.70950937271118168
v 0.28088264398162764 1.31571876094708996 0.70950937271118168
v 0.28088264398162764 1.31571876094708996 0.70950937271118168
v -0.27489222323093508 1.31769936455505764 0.70950937271118168
v -0.27489222323093508 1.31769936455505764 0.70950937271118168
v 0.28088264398162764 1.31571876094708996 -0.70950937271118168
v 0.28088264398162764 1.31571876094708996 -0.70950937271118168
v 0.28088264398162764 1.31571876094708996 -0.70950937271118168
v -0.27489222323093508 1.31769936455505764 -0.70950937271118168
v -0.27489222323093508 1.31769936455505764 -0.70950937271118168
v -0.27489222323093508 1.31769936455505764 -0.70950937271118168
# 14 vertices

vn -0.57528917380566424 0.57940413088683016 -0.57735031843185424
vn 0.57940413088683016 0.57528917380566424 -0.57735031843185424
vn -0.57528917380566424 0.57940413088683016 0.57735031843185424
vn 0.57940413088683016 0.57528917380566424 0.57735031843185424
vn -0.57940413088683016 -0.57528917380566424 -0.57735031843185424
vn -0.57940413088683016 -0.57528917380566424 -0.57735031843185424
vn 0.57528917380566424 -0.57940413088683016 -0.57735031843185424
vn 0.57528917380566424 -0.57940413088683016 -0.57735031843185424
vn -0.57940413088683016 -0.57528917380566424 0.57735031843185424
vn -0.57940413088683016 -0.57528917380566424 0.57735031843185424
vn -0.57940413088683016 -0.57528917380566424 0.57735031843185424
vn 0.57528917380566424 -0.57940413088683016 0.57735031843185424
vn 0.57528917380566424 -0.57940413088683016 0.57735031843185424
vn 0.57528917380566424 -0.57940413088683016 0.57735031843185424
# 14 vertex normals

vt 0.625 -0.5 0
vt 0.375 -0.5 0
vt 0.625 -0.25 0
vt 0.375 -0.25 0
vt 0.625 -0.75 0
vt 0.875 -0.5 0
vt 0.125 -0.5 0
vt 0.375 -0.75 0
vt 0.625 -0 0
vt 0.625 -1 0
vt 0.875 -0.25 0
vt 0.125 -0.25 0
vt 0.375 -0 0
vt 0.375 -1 0
# 14 texture coords

g Cube
usemtl Material.001
s 1
f 1/1/1 6/6/6 11/11/11
f 1/1/1 11/11/11 3/3/3
f 4/4/4 3/3/3 9/9/9
f 4/4/4 9/9/9 13/13/13
f 14/14/14 10/10/10 5/5/5
f 14/14/14 5/5/5 8/8/8
f 7/7/7 2/2/2 4/4/4
f 7/7/7 4/4/4 12/12/12
f 2/2/2 1/1/1 3/3/3
f 2/2/2 3/3/3 4/4/4
f 8/8/8 5/5/5 1/1/1
f 8/8/8 1/1/1 2/2/2
#12 polygons


#
# object Cylinder
#

v -0.28471293687173684 3.2136664490131892 0.00106589884147994
v -0.28471293687173684 3.2136664490131892 0.00106589884147994
v -0.28471293687173684 3.2136664490131892 0.00106589884147994
v 0.28494772891131524 3.21362482507764912 0.00106717533871036
v 0.28494772891131524 3.21362482507764912 0.00106717533871036
v 0.28494772891131524 3.21362482507764912 0.00106717533871036
v -0.28488521828908748 0.8011028169379616 -1.7510232616847752
v -0.28488521828908748 0.8011028169379616 -1.7510232616847752
v 0.2847754474939646 0.80106119300242112 -1.75102198518754464
v 0.2847754474939646 0.80106119300242112 -1.75102198518754464
v -0.28489284352774852 0.79878277285778608 1.74995544797030832
v -0.28489284352774852 0.79878277285778608 1.74995544797030832
v 0.28476782225530356 0.79874114892224576 1.74995672446753888
v 0.28476782225530356 0.79874114892224576 1.74995672446753888
# 14 vertices

vn -0.55463933974686472 0.8320906097222816 0.00055020546986106
vn -0.55463933974686472 0.8320906097222816 0.00055020546986106
vn -0.55463933974686472 0.8320906097222816 0.00055020546986106
vn 0.55476092965850784 0.83200954820354256 0.00055256805935777
vn 0.55476092965850784 0.83200954820354256 0.00055256805935777
vn 0.55476092965850784 0.83200954820354256 0.00055256805935777
vn -0.55472896274080408 -0.41550696410215704 -0.72085336037858112
vn -0.55472896274080408 -0.41550696410215704 -0.72085336037858112
vn 0.5546713066645684 -0.41558802562089568 -0.72085099778908416
vn 0.5546713066645684 -0.41558802562089568 -0.72085099778908416
vn -0.55473210161603472 -0.41646199373738472 0.72029961106397392
vn -0.55473210161603472 -0.41646199373738472 0.72029961106397392
vn 0.55466816778933792 -0.41654305525612344 0.72030197365347072
vn 0.55466816778933792 -0.41654305525612344 0.72030197365347072
# 14 vertex normals

vt -5.960464477539063E-08 -0.5 0
vt 0.75 -0.5099999904632568 0
vt 1 -0.5 0
vt -5.960464477539063E-08 -0 0
vt 0.25 -0.5099999904632568 0
vt 1 -0 0
vt 0.6666666269302368 -0.5 0
vt 0.95784610509872432 -0.87000000476837152 0
vt 0.4578461050987244 -0.87000000476837152 0
vt 0.6666666269302368 -0 0
vt 0.33333328366279604 -0.5 0
vt 0.5421538949012756 -0.87000000476837152 0
vt 0.04215390980243683 -0.87000000476837152 0
vt 0.33333328366279604 -0 0
# 14 texture coords

g Cylinder
usemtl Material.001
s 2
f 17/17/17 20/20/20 24/24/24
f 17/17/17 24/24/24 21/21/21
f 21/21/21 24/24/24 28/28/28
f 21/21/21 28/28/28 25/25/25
f 23/23/23 19/19/19 27/27/27
f 25/25/25 28/28/28 18/18/18
f 25/25/25 18/18/18 15/15/15
f 16/16/16 22/22/22 26/26/26
#8 polygons

